# xmcd
#
# Track frame offsets:
#	150
#	18382
#	35290
#	50876
#	66604
#	80263
#	93987
#	111991
#	127319
#	141077
#	159512
#	171834
#	187611
#	202218
#	218725
#	234988
#	246664
#	261905
#	274862
#	285367
#	298645
#	313245
#	323811
#	335794
#
# Disc length: 4709 seconds
#
# Revision: 0
# Processed by: cddbd v1.5.1PL2 Copyright (c) Steve Scherf et al.
# Submitted via: EasyCDDAExtractor 4.6.9.1
#
DISCID=7c126318
DTITLE=Dj Tiago - Fazendo a Festa
DYEAR=2005
DGENRE=Dance Mix
TTITLE0=Festa do Dj Tiago
TTITLE1=Coração - Rapazzola
TTITLE2=The black Eyed Peas
TTITLE3=Get over - Kassino
TTITLE4=Zumbizeira
TTITLE5=El Celular - El Chombo
TTITLE6=Girl friend
TTITLE7=Oye mi canto (Remix)  Nina Sky
TTITLE8=Roqueiro Viado (Remix)
TTITLE9=Festa no Apê - Latino
TTITLE10=Malha Funk
TTITLE11=Arrocha - Os sungas
TTITLE12=Gasolina - Daddy Yankee
TTITLE13=My Band - 112 e Eminem
TTITLE14=Festa do Beijo
TTITLE15=Chupa chupa - Chamaco
TTITLE16=Sangue Bom - Marcelo D2
TTITLE17=Movie Culo
TTITLE18=Safada, Cachorra, Sem Vergonha
TTITLE19=Que calor - Perlas
TTITLE20=The killer Song - Carolina Marques
TTITLE21=Funk the beat 2005
TTITLE22=Atoladinha - Bola de fogo
TTITLE23=Historia do Mamute
EXTD=
EXTT0=
EXTT1=
EXTT2=
EXTT3=
EXTT4=
EXTT5=
EXTT6=
EXTT7=
EXTT8=
EXTT9=
EXTT10=
EXTT11=
EXTT12=
EXTT13=
EXTT14=
EXTT15=
EXTT16=
EXTT17=
EXTT18=
EXTT19=
EXTT20=
EXTT21=
EXTT22=
EXTT23=
PLAYORDER=
